<?xml version="1.0" encoding="utf-8"?>
<!-- Generator: Adobe Illustrator 22.1.0, SVG Export Plug-In . SVG Version: 6.00 Build 0)  -->
<svg version="1.1" id="Capa_1" xmlns="http://www.w3.org/2000/svg" xmlns:xlink="http://www.w3.org/1999/xlink" x="0px" y="0px"
	 viewBox="0 0 380 60" style="enable-background:new 0 0 380 60;" xml:space="preserve">
<style type="text/css">
	.st0{fill-rule:evenodd;clip-rule:evenodd;fill:#FFFFFF;}
	.st1{fill:#FFFFFF;}
</style>
<g>
	<g>
		<g>
			<g>
				<path class="st0" d="M98.3,57c0.1-1.4,0.2-3,0.3-4.8c0.1-1.8,0.1-3.9,0.2-6.1h6l-0.1,2c-0.3,0-0.7,0-0.9,0c-0.3,0-0.5,0-0.6,0
					h-2.5c0,0.1,0,0.3-0.1,0.4s0,0.4-0.1,0.8l0,1.1h2.2c0.3,0,0.6,0,0.8,0c0.2,0,0.5,0,0.6-0.1l-0.1,2.1c-0.2,0-0.3,0-0.5,0
					c-0.2,0-0.4,0-0.8,0h-0.6h-1.8l-0.1,1.1c0,0.4,0,0.8,0,1.2c0,0.4,0,0.8,0,1.2c0,0.3,0,0.6,0,0.7c0,0.2,0,0.3,0,0.5H98.3z"/>
			</g>
			<g>
				<path class="st0" d="M107.3,51.8c0,1.1,0.3,2,0.8,2.6c0.5,0.6,1.2,0.9,2.1,0.9c1,0,1.8-0.3,2.3-1c0.5-0.7,0.8-1.7,0.8-3
					c0-1.2-0.3-2-0.8-2.7c-0.5-0.6-1.2-0.9-2.2-0.9c-1,0-1.7,0.3-2.2,1C107.5,49.5,107.3,50.5,107.3,51.8z M110.3,57.3
					c-1.6,0-2.8-0.5-3.7-1.4c-0.9-0.9-1.3-2.3-1.3-4c0-1.8,0.4-3.3,1.3-4.3c0.9-1.1,2.1-1.6,3.6-1.6c1.6,0,2.8,0.5,3.7,1.4
					c0.9,0.9,1.3,2.3,1.3,4.1c0,1.8-0.4,3.3-1.3,4.3C113,56.7,111.8,57.3,110.3,57.3z"/>
			</g>
			<g>
				<path class="st0" d="M116.2,57c0.1-1.4,0.2-3,0.3-4.8c0.1-1.9,0.1-3.9,0.2-6.1h3.9c0.5,0,0.8,0,1,0.1c0.2,0,0.4,0.1,0.6,0.2
					c0.3,0.2,0.6,0.5,0.8,1c0.2,0.5,0.3,1,0.3,1.6c0,0.7-0.2,1.4-0.5,1.9c-0.4,0.5-0.9,1-1.6,1.3c0.3,0.9,0.6,1.7,0.9,2.5
					c0.3,0.8,0.6,1.6,0.9,2.3h-2.1l-2.1-6.3c0.1,0,0.2,0,0.4,0c0.1,0,0.3,0,0.4,0c0.6,0,1.1-0.1,1.4-0.4c0.3-0.3,0.5-0.7,0.5-1.3
					c0-0.5-0.1-0.8-0.3-1c-0.2-0.2-0.7-0.3-1.4-0.3c-0.2,0-0.3,0-0.5,0c-0.2,0-0.4,0-0.6,0c0,0.3-0.1,0.5-0.1,0.8c0,0.3,0,0.5,0,0.8
					l-0.1,4.2c0,0.1,0,0.5,0,1.3c0,0.8,0,1.4,0,2H116.2z"/>
			</g>
			<g>
				<path class="st0" d="M130.6,55.7c-0.1,0.2-0.1,0.5-0.2,0.7c-0.1,0.2-0.1,0.4-0.1,0.6h-2.3c0-0.3-0.1-0.5-0.1-0.7
					c0-0.2-0.1-0.3-0.1-0.5l-1.5-8l-0.4,6.2c0,0.3,0,0.7-0.1,1.2c0,0.5,0,1.1-0.1,1.7h-1.8c0.2-1.3,0.3-2.9,0.4-4.7
					c0.1-1.8,0.2-3.9,0.3-6.2h3c0,0.2,0.1,0.5,0.1,0.7c0,0.2,0.1,0.4,0.1,0.4l1.4,7.5l2-7.2l0,0c0.1-0.5,0.2-1,0.3-1.4h2.9
					c0,0.6-0.1,1.2-0.1,1.9c0,0.2,0,0.3,0,0.3l-0.2,6.2c0,0.1,0,0.2,0,0.3c0,0.2,0,0.3,0,0.4c0,0.2,0,0.5,0,0.8c0,0.3,0,0.6,0,1
					h-1.8c0-0.3,0.1-0.6,0.1-0.9c0-0.3,0-0.6,0-1l0.1-4.5v-0.9c0-0.4,0-0.8,0-1c0-0.2,0-0.5,0-0.7L130.6,55.7z"/>
			</g>
			<g>
				<path class="st0" d="M139.7,47.6l-1.2,3.3h2.1L139.7,47.6z M134.5,57l3.6-9.6c0.1-0.2,0.1-0.3,0.2-0.6c0.1-0.2,0.1-0.5,0.2-0.8
					h2.6c0.1,0.4,0.2,0.7,0.2,1c0.1,0.3,0.1,0.6,0.2,0.8l2.6,9.1h-2.1c-0.1-0.4-0.1-0.7-0.1-0.9c0-0.2-0.1-0.3-0.1-0.4l-0.9-3h-3
					l-1,2.7c-0.1,0.2-0.2,0.4-0.2,0.7c-0.1,0.3-0.2,0.6-0.2,0.9H134.5z"/>
			</g>
			<g>
				<path class="st0" d="M152,48.2c-0.4-0.2-0.8-0.3-1.2-0.4c-0.4-0.1-0.8-0.1-1.3-0.1c-1,0-1.8,0.3-2.4,1c-0.6,0.7-0.8,1.6-0.8,2.8
					c0,1.2,0.3,2.1,0.8,2.7c0.6,0.6,1.4,0.9,2.4,0.9c0.3,0,0.7,0,1.1-0.1c0.4-0.1,0.8-0.2,1.1-0.3l-0.2,2.3c-0.6,0.1-1,0.2-1.3,0.2
					c-0.3,0-0.7,0.1-1,0.1c-1.6,0-2.8-0.5-3.6-1.4c-0.8-0.9-1.2-2.3-1.2-4.1c0-1.9,0.5-3.4,1.4-4.4c0.9-1,2.2-1.5,3.9-1.5
					c0.3,0,0.6,0,0.9,0.1c0.4,0,0.8,0.1,1.2,0.2L152,48.2z"/>
			</g>
			<g>
				<path class="st0" d="M155.4,46.1c0,0.5-0.1,0.9-0.1,1.3c0,0.4,0,0.7-0.1,1l-0.3,6.2c0,0.1,0,0.2,0,0.3c0,0.1,0,0.3,0,0.5
					c0,0.4,0,0.7,0,0.9c0,0.2,0,0.5,0,0.7h-2.1c0.1-1.3,0.2-2.9,0.3-4.8c0.1-1.8,0.1-3.9,0.2-6.2H155.4z"/>
			</g>
			<g>
				<path class="st0" d="M158.5,51.8c0,1.1,0.3,2,0.8,2.6c0.5,0.6,1.2,0.9,2.1,0.9c1,0,1.8-0.3,2.3-1s0.8-1.7,0.8-3
					c0-1.2-0.3-2-0.8-2.7c-0.5-0.6-1.2-0.9-2.2-0.9c-1,0-1.7,0.3-2.2,1C158.7,49.5,158.5,50.5,158.5,51.8z M161.5,57.3
					c-1.6,0-2.8-0.5-3.7-1.4c-0.9-0.9-1.3-2.3-1.3-4c0-1.8,0.4-3.3,1.3-4.3c0.9-1.1,2.1-1.6,3.6-1.6c1.6,0,2.8,0.5,3.7,1.4
					c0.9,0.9,1.3,2.3,1.3,4.1c0,1.8-0.4,3.3-1.3,4.3C164.2,56.7,163,57.3,161.5,57.3z M160.8,45.2l1.3-2.8h1.4l-1.9,2.8H160.8z"/>
			</g>
			<g>
				<path class="st0" d="M172.7,57c-0.1-0.6-0.4-1.4-0.8-2.6c-0.1-0.2-0.1-0.3-0.1-0.4l-2.2-6.2l-0.2,5.8c0,0.8-0.1,1.9-0.1,3.3
					c0,0.1,0,0.1,0,0.1h-1.8c0.1-0.9,0.2-2.1,0.2-3.6c0.1-1.5,0.2-4,0.3-7.3h2.9l3.3,9.2l0.2-6.6c0-0.5,0-0.9,0-1.1
					c0-0.3,0-0.5,0-0.8c0-0.1,0-0.2,0-0.3c0-0.1,0-0.2,0-0.3h1.8c-0.1,0.5-0.1,0.9-0.1,1.3c0,0.4,0,0.7-0.1,1l-0.3,6.2
					c0,0.2,0,0.4,0,0.6c0,0.2,0,0.4,0,0.6c0,0.1,0,0.3,0,0.6c0,0.3,0,0.5,0,0.6H172.7z"/>
			</g>
			<g>
				<path class="st0" d="M180.1,46.1h2.3c0.1,0.3,0.2,0.6,0.3,1.1c0,0,0,0.1,0,0.1l1,2.8l1.3-2.7c0.1-0.2,0.2-0.4,0.2-0.6
					c0.1-0.2,0.1-0.4,0.2-0.6h2.2l-3.1,6l-0.1,3.5V56c0,0.3,0,0.5,0,0.6c0,0.1,0,0.3,0,0.4h-2c0-0.5,0-0.9,0.1-1.2
					c0-0.3,0-0.5,0-0.7l0.1-3.1L180.1,46.1z"/>
			</g>
			<g>
				<path class="st0" d="M195.2,47.8l-0.2,5.8c0,0.4,0,0.8,0,1.2c0,0.4,0,0.8,0,1.2c0,0.3,0,0.5,0,0.6c0,0.1,0,0.3,0,0.4h-2.1
					c0.1-1.5,0.3-3,0.3-4.5c0.1-1.5,0.1-3.1,0.2-4.7c-0.1,0-0.2,0-0.2,0c-0.1,0-0.2,0-0.4,0c-0.3,0-0.6,0-0.9,0c-0.3,0-0.6,0-1,0.1
					l0.1-1.8h7l-0.1,1.8c-0.3,0-0.6-0.1-0.9-0.1c-0.3,0-0.6,0-0.9,0c-0.2,0-0.4,0-0.5,0C195.4,47.8,195.3,47.8,195.2,47.8z"/>
			</g>
			<g>
				<path class="st0" d="M198.2,57c0.1-1.4,0.2-3,0.3-4.8c0.1-1.9,0.1-3.9,0.2-6.1h3.9c0.5,0,0.8,0,1,0.1s0.4,0.1,0.6,0.2
					c0.3,0.2,0.6,0.5,0.8,1s0.3,1,0.3,1.6c0,0.7-0.2,1.4-0.5,1.9c-0.4,0.5-0.9,1-1.6,1.3c0.3,0.9,0.6,1.7,0.9,2.5
					c0.3,0.8,0.6,1.6,0.9,2.3h-2.1l-2.1-6.3c0.1,0,0.2,0,0.4,0c0.1,0,0.3,0,0.4,0c0.6,0,1.1-0.1,1.4-0.4c0.3-0.3,0.5-0.7,0.5-1.3
					c0-0.5-0.1-0.8-0.3-1c-0.2-0.2-0.7-0.3-1.4-0.3c-0.2,0-0.3,0-0.5,0c-0.2,0-0.4,0-0.6,0c0,0.3-0.1,0.5-0.1,0.8c0,0.3,0,0.5,0,0.8
					l-0.1,4.2c0,0.1,0,0.5,0,1.3c0,0.8,0,1.4,0,2H198.2z"/>
			</g>
			<g>
				<path class="st0" d="M210,47.6l-1.2,3.3h2.1L210,47.6z M204.9,57l3.6-9.6c0.1-0.2,0.1-0.3,0.2-0.6c0.1-0.2,0.1-0.5,0.2-0.8h2.6
					c0.1,0.4,0.2,0.7,0.2,1c0.1,0.3,0.1,0.6,0.2,0.8l2.6,9.1h-2.1c-0.1-0.4-0.1-0.7-0.1-0.9c0-0.2-0.1-0.3-0.1-0.4l-0.9-3h-3l-1,2.7
					c-0.1,0.2-0.2,0.4-0.2,0.7c-0.1,0.3-0.2,0.6-0.2,0.9H204.9z"/>
			</g>
			<g>
				<path class="st0" d="M217.1,50.4h1c0.6,0,1.1-0.1,1.4-0.4c0.3-0.2,0.5-0.6,0.5-1.1c0-0.4-0.1-0.7-0.3-0.8
					c-0.2-0.2-0.5-0.2-1-0.2h-1.4c0,0.3,0,0.5,0,0.7c0,0.2,0,0.4,0,0.5L217.1,50.4z M216.9,55.1h1.3c0.6,0,1.1-0.1,1.3-0.4
					c0.3-0.2,0.4-0.6,0.4-1.2c0-0.5-0.1-0.8-0.4-1.1c-0.2-0.2-0.6-0.3-1.1-0.3H217l0,1c0,0.3,0,0.5,0,0.7c0,0.2,0,0.3,0,0.4
					c0,0.1,0,0.2,0,0.4C216.9,54.9,216.9,55,216.9,55.1z M218.6,46.1c1.2,0,2,0.2,2.5,0.6c0.5,0.4,0.7,1,0.7,1.9
					c0,0.7-0.2,1.4-0.5,1.8c-0.4,0.5-0.9,0.8-1.6,0.9c0.7,0.1,1.3,0.3,1.7,0.8c0.4,0.4,0.5,1,0.5,1.8c0,1.1-0.3,1.9-0.9,2.4
					c-0.6,0.5-1.5,0.7-2.7,0.7h-3.4c0.1-1.4,0.2-3.1,0.3-4.9c0.1-1.8,0.1-3.9,0.1-6H218.6z"/>
			</g>
			<g>
				<path class="st0" d="M226.8,47.6l-1.2,3.3h2.1L226.8,47.6z M221.6,57l3.6-9.6c0.1-0.2,0.1-0.3,0.2-0.6c0.1-0.2,0.1-0.5,0.2-0.8
					h2.6c0.1,0.4,0.2,0.7,0.2,1c0.1,0.3,0.1,0.6,0.2,0.8l2.6,9.1h-2.1c-0.1-0.4-0.1-0.7-0.1-0.9c0-0.2-0.1-0.3-0.1-0.4l-0.9-3h-3
					l-1,2.7c-0.1,0.2-0.2,0.4-0.2,0.7c-0.1,0.3-0.2,0.6-0.2,0.9H221.6z"/>
			</g>
			<g>
				<path class="st0" d="M230.8,54.8c0.4,0.2,0.7,0.3,1,0.4c0.3,0.1,0.5,0.1,0.8,0.1c0.5,0,0.9-0.1,1.1-0.4c0.2-0.3,0.4-0.8,0.5-1.6
					c0-0.3,0.1-1.2,0.1-2.6c0-1.4,0.1-2.9,0.1-4.6h2c0,0.3,0,0.6-0.1,0.9c0,0.3,0,0.8-0.1,1.4l-0.2,4c0,0.2,0,0.5,0,0.9
					c0,1.4-0.2,2.4-0.4,2.8c-0.2,0.4-0.6,0.7-1,0.9c-0.5,0.2-1,0.3-1.7,0.3c-0.3,0-0.6,0-0.9-0.1c-0.3,0-0.6-0.1-0.9-0.2L230.8,54.8
					z"/>
			</g>
			<g>
				<path class="st0" d="M239.2,51.8c0,1.1,0.3,2,0.8,2.6c0.5,0.6,1.2,0.9,2.1,0.9c1,0,1.8-0.3,2.3-1s0.8-1.7,0.8-3
					c0-1.2-0.3-2-0.8-2.7c-0.5-0.6-1.2-0.9-2.2-0.9c-1,0-1.7,0.3-2.2,1C239.4,49.5,239.2,50.5,239.2,51.8z M242.2,57.3
					c-1.6,0-2.8-0.5-3.7-1.4c-0.9-0.9-1.3-2.3-1.3-4c0-1.8,0.4-3.3,1.3-4.3c0.9-1.1,2.1-1.6,3.6-1.6c1.6,0,2.8,0.5,3.7,1.4
					c0.9,0.9,1.3,2.3,1.3,4.1c0,1.8-0.4,3.3-1.3,4.3C244.9,56.7,243.7,57.3,242.2,57.3z"/>
			</g>
			<g>
				<path class="st0" d="M256.1,47.6l-1.2,3.3h2.1L256.1,47.6z M250.9,57l3.6-9.6c0.1-0.2,0.1-0.3,0.2-0.6c0.1-0.2,0.1-0.5,0.2-0.8
					h2.6c0.1,0.4,0.2,0.7,0.2,1c0.1,0.3,0.1,0.6,0.2,0.8l2.6,9.1h-2.1c-0.1-0.4-0.1-0.7-0.1-0.9c0-0.2-0.1-0.3-0.1-0.4l-0.9-3h-3
					l-1,2.7c-0.1,0.2-0.2,0.4-0.2,0.7c-0.1,0.3-0.2,0.6-0.2,0.9H250.9z"/>
			</g>
			<g>
				<path class="st0" d="M263,46.1c0,0.5-0.1,1.1-0.1,1.9c0,0.1,0,0.1,0,0.2l-0.2,4.2V53c0,0.8,0.1,1.4,0.4,1.7
					c0.3,0.3,0.8,0.5,1.4,0.5c0.7,0,1.3-0.2,1.6-0.7c0.3-0.4,0.5-1.3,0.5-2.5l0.1-3.5c0-0.1,0-0.2,0-0.4c0-0.1,0-0.4,0-0.7
					c0-0.4,0-0.7,0-0.9c0-0.2,0-0.4,0-0.6h2c0,0.4-0.1,0.8-0.1,1.2c0,0.4-0.1,0.8-0.1,1.1l-0.2,3.8c0,0.2,0,0.4,0,0.8
					c0,1.1-0.1,1.8-0.3,2.2c-0.2,0.7-0.7,1.2-1.3,1.5c-0.6,0.4-1.5,0.5-2.4,0.5c-1.2,0-2.1-0.3-2.7-0.9c-0.6-0.6-0.9-1.5-0.9-2.7
					c0-0.2,0-1.1,0.1-2.8c0.1-1.7,0.1-3.3,0.1-4.7H263z"/>
			</g>
			<g>
				<path class="st0" d="M273.8,47.8l-0.2,5.8c0,0.4,0,0.8,0,1.2c0,0.4,0,0.8,0,1.2c0,0.3,0,0.5,0,0.6c0,0.1,0,0.3,0,0.4h-2.1
					c0.1-1.5,0.3-3,0.3-4.5c0.1-1.5,0.1-3.1,0.2-4.7c-0.1,0-0.2,0-0.2,0c-0.1,0-0.2,0-0.4,0c-0.3,0-0.6,0-0.9,0c-0.3,0-0.6,0-1,0.1
					l0.1-1.8h7l-0.1,1.8c-0.3,0-0.6-0.1-0.9-0.1c-0.3,0-0.6,0-0.9,0c-0.2,0-0.4,0-0.5,0C274,47.8,273.9,47.8,273.8,47.8z"/>
			</g>
			<g>
				<path class="st0" d="M278.7,51.8c0,1.1,0.3,2,0.8,2.6c0.5,0.6,1.2,0.9,2.1,0.9c1,0,1.8-0.3,2.3-1c0.5-0.7,0.8-1.7,0.8-3
					c0-1.2-0.3-2-0.8-2.7c-0.5-0.6-1.2-0.9-2.2-0.9c-1,0-1.7,0.3-2.2,1C278.9,49.5,278.7,50.5,278.7,51.8z M281.7,57.3
					c-1.6,0-2.8-0.5-3.7-1.4c-0.9-0.9-1.3-2.3-1.3-4c0-1.8,0.4-3.3,1.3-4.3c0.9-1.1,2.1-1.6,3.6-1.6c1.6,0,2.8,0.5,3.7,1.4
					c0.9,0.9,1.3,2.3,1.3,4.1c0,1.8-0.4,3.3-1.3,4.3C284.4,56.7,283.2,57.3,281.7,57.3z M281,45.2l1.3-2.8h1.4l-1.9,2.8H281z"/>
			</g>
			<g>
				<path class="st0" d="M292.9,57c-0.1-0.6-0.4-1.4-0.8-2.6c-0.1-0.2-0.1-0.3-0.1-0.4l-2.2-6.2l-0.2,5.8c0,0.8-0.1,1.9-0.1,3.3
					c0,0.1,0,0.1,0,0.1h-1.8c0.1-0.9,0.2-2.1,0.2-3.6c0.1-1.5,0.2-4,0.3-7.3h2.9l3.3,9.2l0.2-6.6c0-0.5,0-0.9,0-1.1
					c0-0.3,0-0.5,0-0.8c0-0.1,0-0.2,0-0.3c0-0.1,0-0.2,0-0.3h1.8c-0.1,0.5-0.1,0.9-0.1,1.3c0,0.4,0,0.7-0.1,1l-0.3,6.2
					c0,0.2,0,0.4,0,0.6c0,0.2,0,0.4,0,0.6c0,0.1,0,0.3,0,0.6c0,0.3,0,0.5,0,0.6H292.9z"/>
			</g>
			<g>
				<path class="st0" d="M299.4,51.8c0,1.1,0.3,2,0.8,2.6c0.5,0.6,1.2,0.9,2.1,0.9c1,0,1.8-0.3,2.3-1c0.5-0.7,0.8-1.7,0.8-3
					c0-1.2-0.3-2-0.8-2.7c-0.5-0.6-1.2-0.9-2.2-0.9c-1,0-1.7,0.3-2.2,1S299.4,50.5,299.4,51.8z M302.4,57.3c-1.6,0-2.8-0.5-3.7-1.4
					c-0.9-0.9-1.3-2.3-1.3-4c0-1.8,0.4-3.3,1.3-4.3c0.9-1.1,2.1-1.6,3.6-1.6c1.6,0,2.8,0.5,3.7,1.4c0.9,0.9,1.3,2.3,1.3,4.1
					c0,1.8-0.4,3.3-1.3,4.3C305.2,56.7,304,57.3,302.4,57.3z"/>
			</g>
			<g>
				<path class="st0" d="M315,55.7c-0.1,0.2-0.1,0.5-0.2,0.7c-0.1,0.2-0.1,0.4-0.1,0.6h-2.3c0-0.3-0.1-0.5-0.1-0.7s-0.1-0.3-0.1-0.5
					l-1.5-8l-0.4,6.2c0,0.3,0,0.7-0.1,1.2c0,0.5,0,1.1-0.1,1.7h-1.8c0.2-1.3,0.3-2.9,0.4-4.7c0.1-1.8,0.2-3.9,0.3-6.2h3
					c0,0.2,0.1,0.5,0.1,0.7c0,0.2,0.1,0.4,0.1,0.4l1.4,7.5l2-7.2l0,0c0.1-0.5,0.2-1,0.3-1.4h2.9c0,0.6-0.1,1.2-0.1,1.9
					c0,0.2,0,0.3,0,0.3l-0.2,6.2c0,0.1,0,0.2,0,0.3c0,0.2,0,0.3,0,0.4c0,0.2,0,0.5,0,0.8c0,0.3,0,0.6,0,1h-1.8
					c0-0.3,0.1-0.6,0.1-0.9c0-0.3,0-0.6,0-1l0.1-4.5v-0.9c0-0.4,0-0.8,0-1c0-0.2,0-0.5,0-0.7L315,55.7z"/>
			</g>
			<g>
				<path class="st0" d="M322,51.8c0,1.1,0.3,2,0.8,2.6c0.5,0.6,1.2,0.9,2.1,0.9c1,0,1.8-0.3,2.3-1s0.8-1.7,0.8-3
					c0-1.2-0.3-2-0.8-2.7c-0.5-0.6-1.2-0.9-2.2-0.9c-1,0-1.7,0.3-2.2,1C322.2,49.5,322,50.5,322,51.8z M325,57.3
					c-1.6,0-2.8-0.5-3.7-1.4c-0.9-0.9-1.3-2.3-1.3-4c0-1.8,0.4-3.3,1.3-4.3c0.9-1.1,2.1-1.6,3.6-1.6c1.6,0,2.8,0.5,3.7,1.4
					c0.9,0.9,1.3,2.3,1.3,4.1c0,1.8-0.4,3.3-1.3,4.3C327.7,56.7,326.5,57.3,325,57.3z"/>
			</g>
		</g>
		<g>
			<g>
				<path class="st0" d="M105.8,27.5c-0.4-0.2-0.8-0.3-1.2-0.4c-0.4-0.1-0.8-0.1-1.3-0.1c-1,0-1.8,0.3-2.4,1
					c-0.6,0.7-0.8,1.6-0.8,2.8c0,1.2,0.3,2.1,0.8,2.7c0.6,0.6,1.4,0.9,2.4,0.9c0.3,0,0.7,0,1.1-0.1c0.4-0.1,0.8-0.2,1.1-0.3
					l-0.2,2.3c-0.6,0.1-1,0.2-1.3,0.2c-0.3,0-0.7,0.1-1,0.1c-1.6,0-2.8-0.5-3.6-1.4c-0.8-0.9-1.2-2.3-1.2-4.1c0-1.9,0.5-3.4,1.4-4.4
					c0.9-1,2.2-1.5,3.9-1.5c0.3,0,0.6,0,0.9,0.1c0.4,0,0.8,0.1,1.2,0.2L105.8,27.5z"/>
			</g>
			<g>
				<path class="st0" d="M108.6,31.1c0,1.1,0.3,2,0.8,2.6c0.5,0.6,1.2,0.9,2.1,0.9c1,0,1.8-0.3,2.3-1c0.5-0.7,0.8-1.7,0.8-3
					c0-1.2-0.3-2-0.8-2.7c-0.5-0.6-1.2-0.9-2.2-0.9c-1,0-1.7,0.3-2.2,1S108.6,29.8,108.6,31.1z M111.6,36.6c-1.6,0-2.8-0.5-3.7-1.4
					c-0.9-0.9-1.3-2.3-1.3-4c0-1.8,0.4-3.3,1.3-4.3c0.9-1.1,2.1-1.6,3.6-1.6c1.6,0,2.8,0.5,3.7,1.4c0.9,0.9,1.3,2.3,1.3,4.1
					c0,1.8-0.4,3.3-1.3,4.3C114.4,36.1,113.1,36.6,111.6,36.6z"/>
			</g>
			<g>
				<path class="st0" d="M122.9,36.4c-0.1-0.6-0.4-1.4-0.8-2.6c-0.1-0.2-0.1-0.3-0.1-0.4l-2.2-6.2l-0.2,5.8c0,0.8-0.1,1.9-0.1,3.3
					c0,0.1,0,0.1,0,0.1h-1.8c0.1-0.9,0.2-2.1,0.2-3.6c0.1-1.5,0.2-4,0.3-7.3h2.9l3.3,9.2l0.2-6.6c0-0.5,0-0.9,0-1.1
					c0-0.3,0-0.5,0-0.8c0-0.1,0-0.2,0-0.3c0-0.1,0-0.2,0-0.3h1.8c-0.1,0.5-0.1,0.9-0.1,1.3c0,0.4,0,0.7-0.1,1l-0.3,6.2
					c0,0.2,0,0.4,0,0.6c0,0.2,0,0.4,0,0.6c0,0.1,0,0.3,0,0.6c0,0.3,0,0.5,0,0.6H122.9z"/>
			</g>
			<g>
				<path class="st0" d="M128.8,30.7c-0.5-0.5-0.8-1-1-1.4c-0.2-0.4-0.3-0.9-0.3-1.4c0-0.9,0.3-1.5,0.8-2c0.5-0.5,1.2-0.7,2.2-0.7
					c0.3,0,0.7,0,1,0.1c0.4,0,0.7,0.1,1.2,0.2l0.1,2c-0.4-0.2-0.8-0.3-1.1-0.4c-0.3-0.1-0.6-0.1-0.8-0.1c-0.5,0-0.8,0.1-1.1,0.3
					c-0.3,0.2-0.4,0.5-0.4,0.8c0,0.1,0,0.3,0.1,0.4c0,0.1,0.1,0.2,0.2,0.3l2.1,2.2c0.5,0.5,0.8,1,1,1.4c0.2,0.4,0.3,0.9,0.3,1.4
					c0,0.9-0.3,1.6-0.8,2.1c-0.6,0.5-1.3,0.8-2.3,0.8c-0.5,0-1-0.1-1.5-0.2c-0.5-0.1-0.8-0.3-1.1-0.4l-0.1-2.1
					c0.5,0.3,1,0.5,1.4,0.7c0.4,0.2,0.8,0.2,1.2,0.2c0.4,0,0.8-0.1,1-0.3c0.3-0.2,0.4-0.5,0.4-0.8c0-0.2,0-0.3-0.1-0.5
					c-0.1-0.2-0.2-0.3-0.4-0.5L128.8,30.7z"/>
			</g>
			<g>
				<path class="st0" d="M133.9,36.4c0.1-1.4,0.2-3,0.3-4.8c0.1-1.8,0.1-3.9,0.2-6.1h6.5l-0.1,2c-0.3,0-0.7,0-0.9,0
					c-0.3,0-0.5,0-0.6,0h-3c0,0.1,0,0.3-0.1,0.4s0,0.4-0.1,0.8l0,1.1h2.7c0.4,0,0.7,0,0.9,0c0.2,0,0.4,0,0.6-0.1l-0.1,2.1
					c-0.1,0-0.3,0-0.5,0c-0.2,0-0.4,0-0.8,0h-0.6H136l-0.1,1.1c0,0.3,0,0.6,0,0.8c0,0.2,0,0.4,0,0.5l0,0.2c0.3,0,0.5,0,0.7,0
					c0.2,0,0.4,0,0.5,0c0.7,0,1.3,0,1.8,0c0.6,0,1.1-0.1,1.5-0.1l-0.1,2.2H133.9z"/>
			</g>
			<g>
				<path class="st0" d="M140.7,34.1c0.4,0.2,0.7,0.3,1,0.4c0.3,0.1,0.5,0.1,0.8,0.1c0.5,0,0.9-0.1,1.1-0.4c0.2-0.3,0.4-0.8,0.5-1.6
					c0-0.3,0.1-1.2,0.1-2.6c0-1.4,0.1-2.9,0.1-4.6h2c0,0.3,0,0.6-0.1,0.9c0,0.3,0,0.8-0.1,1.4l-0.2,4c0,0.2,0,0.5,0,0.9
					c0,1.4-0.2,2.4-0.4,2.8c-0.2,0.4-0.6,0.7-1,0.9c-0.5,0.2-1,0.3-1.7,0.3c-0.3,0-0.6,0-0.9-0.1c-0.3,0-0.6-0.1-0.9-0.2L140.7,34.1
					z"/>
			</g>
			<g>
				<path class="st0" d="M147.2,36.4c0.1-1.4,0.2-3,0.3-4.8c0.1-1.8,0.1-3.9,0.2-6.1h6.5l-0.1,2c-0.3,0-0.7,0-0.9,0
					c-0.3,0-0.5,0-0.6,0h-3c0,0.1,0,0.3-0.1,0.4c0,0.2,0,0.4-0.1,0.8l0,1.1h2.7c0.4,0,0.7,0,0.9,0c0.2,0,0.4,0,0.6-0.1l-0.1,2.1
					c-0.1,0-0.3,0-0.5,0c-0.2,0-0.4,0-0.8,0h-0.6h-2.3l-0.1,1.1c0,0.3,0,0.6,0,0.8c0,0.2,0,0.4,0,0.5l0,0.2c0.3,0,0.5,0,0.7,0
					c0.2,0,0.4,0,0.5,0c0.7,0,1.3,0,1.8,0c0.6,0,1.1-0.1,1.5-0.1l-0.1,2.2H147.2z"/>
			</g>
			<g>
				<path class="st0" d="M154.8,36.4c0.1-1.4,0.2-3,0.3-4.8c0.1-1.9,0.1-3.9,0.2-6.1h3.9c0.5,0,0.8,0,1,0.1c0.2,0,0.4,0.1,0.6,0.2
					c0.3,0.2,0.6,0.5,0.8,1c0.2,0.5,0.3,1,0.3,1.6c0,0.7-0.2,1.4-0.5,1.9c-0.4,0.5-0.9,1-1.6,1.3c0.3,0.9,0.6,1.7,0.9,2.5
					c0.3,0.8,0.6,1.6,0.9,2.3h-2.1l-2.1-6.3c0.1,0,0.2,0,0.4,0c0.1,0,0.3,0,0.4,0c0.6,0,1.1-0.1,1.4-0.4c0.3-0.3,0.5-0.7,0.5-1.3
					c0-0.5-0.1-0.8-0.3-1c-0.2-0.2-0.7-0.3-1.4-0.3c-0.2,0-0.3,0-0.5,0c-0.2,0-0.4,0-0.6,0c0,0.3-0.1,0.5-0.1,0.8c0,0.3,0,0.5,0,0.8
					l-0.1,4.2c0,0.1,0,0.5,0,1.3c0,0.8,0,1.4,0,2H154.8z"/>
			</g>
			<g>
				<path class="st0" d="M165.2,25.4c0,0.5-0.1,0.9-0.1,1.3c0,0.4,0,0.7-0.1,1l-0.3,6.2c0,0.1,0,0.2,0,0.3c0,0.1,0,0.3,0,0.5
					c0,0.4,0,0.7,0,0.9c0,0.2,0,0.5,0,0.7h-2.1c0.1-1.3,0.2-2.9,0.3-4.8c0.1-1.8,0.1-3.9,0.2-6.2H165.2z M163.3,24.5l1.3-2.8h1.4
					l-1.9,2.8H163.3z"/>
			</g>
			<g>
				<path class="st0" d="M170.3,26.9l-1.2,3.3h2.1L170.3,26.9z M165.2,36.4l3.6-9.6c0.1-0.2,0.1-0.3,0.2-0.6
					c0.1-0.2,0.1-0.5,0.2-0.8h2.6c0.1,0.4,0.2,0.7,0.2,1c0.1,0.3,0.1,0.6,0.2,0.8l2.6,9.1h-2.1c-0.1-0.4-0.1-0.7-0.1-0.9
					c0-0.2-0.1-0.3-0.1-0.4l-0.9-3h-3l-1,2.7c-0.1,0.2-0.2,0.4-0.2,0.7c-0.1,0.3-0.2,0.6-0.2,0.9H165.2z"/>
			</g>
			<g>
				<path class="st0" d="M181.1,34.4h0.9c0.7,0,1.2,0,1.6-0.1c0.3-0.1,0.6-0.3,0.9-0.5c0.4-0.4,0.7-0.8,0.8-1.3
					c0.2-0.5,0.3-1.2,0.3-1.9c0-0.6-0.1-1.2-0.2-1.6c-0.1-0.5-0.3-0.8-0.6-1.1c-0.2-0.2-0.4-0.3-0.6-0.4c-0.2-0.1-0.7-0.1-1.3-0.1
					h-1.6l-0.2,4.8v0c0,0.7,0,1.3,0,1.6V34.4z M179,36.4c0.1-1.4,0.2-3,0.3-4.8c0.1-1.9,0.1-3.9,0.2-6.1h4c0.8,0,1.4,0.1,1.7,0.2
					c0.4,0.1,0.7,0.3,1,0.6c0.5,0.4,0.8,1,1.1,1.8s0.4,1.6,0.4,2.5c0,1.8-0.4,3.3-1.2,4.3c-0.8,1.1-1.9,1.6-3.4,1.6H179z"/>
			</g>
			<g>
				<path class="st0" d="M188.6,36.4c0.1-1.4,0.2-3,0.3-4.8c0.1-1.8,0.1-3.9,0.2-6.1h6.5l-0.1,2c-0.3,0-0.7,0-0.9,0
					c-0.3,0-0.5,0-0.6,0h-3c0,0.1,0,0.3-0.1,0.4s0,0.4-0.1,0.8l0,1.1h2.7c0.4,0,0.7,0,0.9,0c0.2,0,0.4,0,0.6-0.1l-0.1,2.1
					c-0.1,0-0.3,0-0.5,0c-0.2,0-0.4,0-0.8,0H193h-2.3l-0.1,1.1c0,0.3,0,0.6,0,0.8c0,0.2,0,0.4,0,0.5l0,0.2c0.3,0,0.5,0,0.7,0
					s0.4,0,0.5,0c0.7,0,1.3,0,1.8,0c0.6,0,1.1-0.1,1.5-0.1l-0.1,2.2H188.6z"/>
			</g>
			<g>
				<path class="st0" d="M200.2,36.4c0.1-1.4,0.2-3,0.3-4.8c0.1-1.8,0.1-3.9,0.2-6.1h6.5l-0.1,2c-0.3,0-0.7,0-0.9,0
					c-0.3,0-0.5,0-0.6,0h-3c0,0.1,0,0.3-0.1,0.4c0,0.2,0,0.4-0.1,0.8l0,1.1h2.7c0.4,0,0.7,0,0.9,0c0.2,0,0.4,0,0.6-0.1l-0.1,2.1
					c-0.1,0-0.3,0-0.5,0c-0.2,0-0.4,0-0.8,0h-0.6h-2.3l-0.1,1.1c0,0.3,0,0.6,0,0.8c0,0.2,0,0.4,0,0.5l0,0.2c0.3,0,0.5,0,0.7,0
					s0.4,0,0.5,0c0.7,0,1.3,0,1.8,0c0.6,0,1.1-0.1,1.5-0.1l-0.1,2.2H200.2z"/>
			</g>
			<g>
				<path class="st0" d="M214.4,35c-0.1,0.2-0.1,0.5-0.2,0.7c-0.1,0.2-0.1,0.4-0.1,0.6h-2.3c0-0.3-0.1-0.5-0.1-0.7
					c0-0.2-0.1-0.3-0.1-0.5l-1.5-8l-0.4,6.2c0,0.3,0,0.7-0.1,1.2c0,0.5,0,1.1-0.1,1.7h-1.8c0.2-1.3,0.3-2.9,0.4-4.7
					c0.1-1.8,0.2-3.9,0.3-6.2h3c0,0.2,0.1,0.5,0.1,0.7c0,0.2,0.1,0.4,0.1,0.4l1.4,7.5l2-7.2l0,0c0.1-0.5,0.2-1,0.3-1.4h2.9
					c0,0.6-0.1,1.2-0.1,1.9c0,0.2,0,0.3,0,0.3l-0.2,6.2c0,0.1,0,0.2,0,0.3c0,0.2,0,0.3,0,0.4c0,0.2,0,0.5,0,0.8c0,0.3,0,0.6,0,1
					h-1.8c0-0.3,0.1-0.6,0.1-0.9c0-0.3,0-0.6,0-1l0.1-4.5v-0.9c0-0.4,0-0.8,0-1c0-0.2,0-0.5,0-0.7L214.4,35z"/>
			</g>
			<g>
				<path class="st0" d="M219.5,36.4c0.1-1.4,0.2-3,0.3-4.8c0.1-1.9,0.1-3.9,0.2-6.1h3.6c0.5,0,0.8,0,1,0.1c0.2,0,0.4,0.1,0.6,0.2
					c0.4,0.2,0.7,0.6,0.8,1c0.2,0.4,0.3,0.9,0.3,1.5c0,1.1-0.3,2-0.8,2.6c-0.6,0.7-1.3,1-2.2,1c-0.1,0-0.2,0-0.4,0
					c-0.1,0-0.3-0.1-0.5-0.1l-0.4-1.8c0.2,0.1,0.3,0.1,0.5,0.1c0.2,0,0.3,0,0.5,0c0.5,0,0.8-0.1,1.1-0.4c0.3-0.3,0.4-0.7,0.4-1.2
					c0-0.5-0.1-0.8-0.3-1c-0.2-0.2-0.6-0.3-1.1-0.3h-1.1c0,0.6-0.1,1-0.1,1.2c0,0.2,0,0.3,0,0.4l-0.1,4.2c0,0.1,0,0.5,0,1.3
					c0,0.8,0,1.4,0,2H219.5z"/>
			</g>
			<g>
				<path class="st0" d="M226.8,36.4c0.1-1.4,0.2-3,0.3-4.8c0.1-1.8,0.1-3.9,0.2-6.1h2c-0.1,0.5-0.1,1.2-0.2,2l0,0.1l-0.2,4.8l0,0
					c0,0.4,0,0.7,0,0.9c0,0.2,0,0.4,0,0.6c0,0.3,0,0.4,0,0.5c0.1,0,0.2,0,0.4,0c0.2,0,0.4,0,0.5,0c0.6,0,1.1,0,1.5-0.1
					c0.5,0,0.9-0.1,1.3-0.2l-0.1,2.2H226.8z"/>
			</g>
			<g>
				<path class="st0" d="M233.2,36.4c0.1-1.4,0.2-3,0.3-4.8c0.1-1.8,0.1-3.9,0.2-6.1h6.5l-0.1,2c-0.3,0-0.7,0-0.9,0
					c-0.3,0-0.5,0-0.6,0h-3c0,0.1,0,0.3-0.1,0.4s0,0.4-0.1,0.8l0,1.1h2.7c0.4,0,0.7,0,0.9,0c0.2,0,0.4,0,0.6-0.1l-0.1,2.1
					c-0.1,0-0.3,0-0.5,0c-0.2,0-0.4,0-0.8,0h-0.6h-2.3l-0.1,1.1c0,0.3,0,0.6,0,0.8c0,0.2,0,0.4,0,0.5l0,0.2c0.3,0,0.5,0,0.7,0
					c0.2,0,0.4,0,0.5,0c0.7,0,1.3,0,1.8,0c0.6,0,1.1-0.1,1.5-0.1l-0.1,2.2H233.2z"/>
			</g>
			<g>
				<path class="st0" d="M242.8,31.1c0,1.1,0.3,2,0.8,2.6c0.5,0.6,1.2,0.9,2.1,0.9c1,0,1.8-0.3,2.3-1c0.5-0.7,0.8-1.7,0.8-3
					c0-1.2-0.3-2-0.8-2.7c-0.5-0.6-1.2-0.9-2.2-0.9c-1,0-1.7,0.3-2.2,1C243.1,28.8,242.8,29.8,242.8,31.1z M245.8,36.6
					c-1.6,0-2.8-0.5-3.7-1.4c-0.9-0.9-1.3-2.3-1.3-4c0-1.8,0.4-3.3,1.3-4.3c0.9-1.1,2.1-1.6,3.6-1.6c1.6,0,2.8,0.5,3.7,1.4
					c0.9,0.9,1.3,2.3,1.3,4.1c0,1.8-0.4,3.3-1.3,4.3C248.5,36.1,247.3,36.6,245.8,36.6z"/>
			</g>
			<g>
				<polygon class="st0" points="252.1,33.9 254.1,33.9 252.4,37.9 251.2,37.9 				"/>
			</g>
		</g>
		<g>
			<g>
				<path class="st0" d="M102.1,5.7l-1.5,4h2.6L102.1,5.7z M106.1,15.7h-1.3c0-0.3-0.1-0.5-0.1-0.7c0-0.2-0.1-0.4-0.1-0.6l-1-3.6
					h-3.4L99,14c-0.1,0.2-0.1,0.4-0.2,0.7c-0.1,0.3-0.2,0.6-0.3,0.9h-1.2l3.6-9.6c0.1-0.2,0.1-0.4,0.2-0.6c0.1-0.2,0.1-0.5,0.2-0.7
					l1.7,0c0,0.2,0.1,0.4,0.1,0.6s0.1,0.4,0.2,0.6L106.1,15.7z"/>
			</g>
			<g>
				<path class="st0" d="M111.3,15.7c0.1-1,0.1-1.9,0.2-2.8c0-0.9,0.1-1.7,0.1-2.3c0-0.8-0.1-1.4-0.3-1.7c-0.2-0.3-0.6-0.5-1.2-0.5
					c-0.9,0-1.6,0.4-2,1.3c-0.4,0.9-0.6,2.7-0.6,5.4v0.6h-1.1c0.1-1.3,0.2-2.6,0.2-4s0.1-2.8,0.1-4.3h1v1.3c0.3-0.5,0.7-0.9,1.1-1.2
					c0.4-0.2,0.9-0.4,1.5-0.4c0.8,0,1.4,0.2,1.8,0.6c0.4,0.4,0.6,1.1,0.6,2c0,0.2,0,0.8,0,1.9s0,2.1,0,3.1v0.9H111.3z"/>
			</g>
			<g>
				<path class="st0" d="M119,8.5c-0.2-0.1-0.4-0.2-0.7-0.2c-0.2,0-0.5-0.1-0.8-0.1c-0.9,0-1.6,0.3-2,1c-0.5,0.7-0.7,1.6-0.7,2.8
					c0,0.9,0.2,1.6,0.5,2.1c0.3,0.5,0.8,0.7,1.3,0.7c0.7,0,1.3-0.3,1.6-0.9c0.4-0.6,0.6-1.4,0.6-2.5L119,8.5z M118.8,15.7l0-1.2
					c-0.3,0.5-0.7,0.8-1,1c-0.4,0.2-0.8,0.3-1.2,0.3c-0.9,0-1.6-0.3-2.1-1c-0.5-0.6-0.7-1.6-0.7-2.7c0-1.5,0.3-2.7,1-3.6
					c0.7-0.9,1.6-1.3,2.8-1.3c0.2,0,0.5,0,0.7,0.1c0.2,0,0.5,0.1,0.7,0.2l0-0.7c0-0.3,0-0.6,0-0.9c0-0.1,0-0.1,0-0.1v-1h1.1
					c-0.1,1.5-0.2,3.2-0.3,5.1c-0.1,1.9-0.1,3.8-0.1,5.9H118.8z"/>
			</g>
			<g>
				<path class="st0" d="M124.7,15.7c-0.4,0.1-0.7,0.1-0.9,0.2c-0.2,0-0.4,0-0.5,0c-0.7,0-1.2-0.2-1.6-0.6c-0.4-0.4-0.6-0.9-0.6-1.6
					c0-0.6,0.1-1,0.4-1.4c0.2-0.4,0.6-0.7,1.2-0.9l1.5-0.7c0.6-0.3,0.9-0.5,1.1-0.7c0.2-0.2,0.3-0.5,0.3-0.8c0-0.4-0.1-0.6-0.3-0.8
					c-0.2-0.2-0.6-0.3-1.1-0.3c-0.3,0-0.7,0.1-1.1,0.2c-0.4,0.1-0.8,0.3-1.2,0.5l0.1-1.2c0.4-0.1,0.7-0.3,1.1-0.3
					c0.4-0.1,0.8-0.1,1.2-0.1c0.8,0,1.4,0.2,1.7,0.5c0.3,0.3,0.5,0.9,0.5,1.7c0,0.2,0,0.3,0,0.4c0,0.1,0,0.2,0,0.2l-0.1,4.2v1.4
					h-1.2c0.1-0.4,0.1-1,0.1-1.7c0-0.1,0-0.2,0-0.3l0.1-2.6c-0.1,0.1-0.2,0.2-0.3,0.3c-0.1,0.1-0.3,0.2-0.5,0.3l-1.4,0.7
					c-0.4,0.2-0.7,0.4-0.8,0.6c-0.2,0.2-0.2,0.5-0.2,0.8c0,0.4,0.1,0.7,0.3,0.9c0.2,0.2,0.5,0.3,0.9,0.3c0.2,0,0.4,0,0.6-0.1
					c0.2,0,0.5-0.1,0.8-0.2L124.7,15.7z"/>
			</g>
			<g>
				<path class="st0" d="M127.9,15.7c0.1-1,0.2-2.5,0.3-4.4c0.1-1.9,0.1-4.1,0.2-6.5l1.2,0c-0.1,1-0.2,2.5-0.3,4.4
					c-0.1,1.9-0.1,4.1-0.2,6.5H127.9z"/>
			</g>
			<g>
				<path class="st0" d="M132.1,7.4c-0.1,1-0.1,2-0.2,2.9c0,0.9-0.1,1.7-0.1,2.3c0,0.8,0.1,1.4,0.3,1.7c0.2,0.3,0.6,0.5,1.2,0.5
					c0.9,0,1.6-0.4,2-1.3c0.4-0.9,0.5-2.7,0.5-5.4V7.4h1.2c-0.1,1.3-0.2,2.7-0.2,4.1c-0.1,1.4-0.1,2.8-0.1,4.2h-1v-1.3
					c-0.3,0.5-0.7,0.9-1.1,1.1c-0.4,0.2-0.9,0.4-1.5,0.4c-0.8,0-1.4-0.2-1.8-0.6c-0.4-0.4-0.6-1.1-0.6-2c0-0.2,0-0.8,0-1.9
					c0-1.1,0-2.1,0-3.1V7.4H132.1z"/>
			</g>
			<g>
				<path class="st0" d="M143,15.5c-0.3,0.1-0.6,0.2-0.9,0.3c-0.3,0.1-0.6,0.1-0.8,0.1c-1,0-1.8-0.4-2.3-1.1
					c-0.6-0.7-0.8-1.7-0.8-3.1c0-1.4,0.3-2.5,0.9-3.3s1.4-1.2,2.5-1.2c0.2,0,0.5,0,0.8,0.1c0.3,0.1,0.6,0.1,1,0.2v1.2c0,0,0,0,0,0
					c-0.8-0.3-1.4-0.5-1.8-0.5c-0.7,0-1.3,0.3-1.7,0.9c-0.4,0.6-0.6,1.5-0.6,2.6c0,1,0.2,1.7,0.5,2.2c0.4,0.5,0.9,0.8,1.6,0.8
					c0.2,0,0.5,0,0.8-0.1c0.3-0.1,0.7-0.2,1.2-0.4L143,15.5z"/>
			</g>
			<g>
				<path class="st0" d="M144.1,15.7c0.1-1.3,0.2-2.7,0.2-4c0-1.3,0.1-2.6,0.1-3.8V7.4h1.3c-0.1,1.3-0.2,2.7-0.2,4
					c0,1.3-0.1,2.6-0.1,3.8v0.5H144.1z M144.2,6.3l1.3-2.8h1.2l-1.8,2.8H144.2z"/>
			</g>
			<g>
				<path class="st0" d="M150.2,15.7c-0.4,0.1-0.7,0.1-0.9,0.2c-0.2,0-0.4,0-0.5,0c-0.7,0-1.2-0.2-1.6-0.6c-0.4-0.4-0.6-0.9-0.6-1.6
					c0-0.6,0.1-1,0.4-1.4c0.2-0.4,0.6-0.7,1.2-0.9l1.5-0.7c0.6-0.3,0.9-0.5,1.1-0.7c0.2-0.2,0.3-0.5,0.3-0.8c0-0.4-0.1-0.6-0.3-0.8
					c-0.2-0.2-0.6-0.3-1.1-0.3c-0.3,0-0.7,0.1-1.1,0.2c-0.4,0.1-0.8,0.3-1.2,0.5l0.1-1.2c0.4-0.1,0.7-0.3,1.1-0.3
					c0.4-0.1,0.8-0.1,1.2-0.1c0.8,0,1.4,0.2,1.7,0.5c0.3,0.3,0.5,0.9,0.5,1.7c0,0.2,0,0.3,0,0.4c0,0.1,0,0.2,0,0.2l-0.1,4.2v1.4
					h-1.2c0.1-0.4,0.1-1,0.1-1.7c0-0.1,0-0.2,0-0.3L151,11c-0.1,0.1-0.2,0.2-0.3,0.3c-0.1,0.1-0.3,0.2-0.5,0.3l-1.4,0.7
					c-0.4,0.2-0.7,0.4-0.8,0.6c-0.2,0.2-0.2,0.5-0.2,0.8c0,0.4,0.1,0.7,0.3,0.9c0.2,0.2,0.5,0.3,0.9,0.3c0.2,0,0.4,0,0.6-0.1
					c0.2,0,0.5-0.1,0.8-0.2L150.2,15.7z"/>
			</g>
			<g>
				<path class="st0" d="M157.1,15.7c0.1-1.4,0.2-3,0.3-4.8c0.1-1.8,0.1-3.9,0.1-6.1h5.9L163.3,6c-0.1,0-0.2,0-0.3,0
					c-0.7,0-1.1-0.1-1.2-0.1h-3.1c0,0,0,0.1,0,0.2c0,0.1,0,0.2,0,0.2c0,0,0,0.1,0,0.3c0,0.1,0,0.3,0,0.4l-0.1,2.4h2.7
					c0.2,0,0.4,0,0.6,0c0.2,0,0.5,0,0.8,0l0,1.3c-0.2,0-0.3,0-0.5,0c-0.2,0-0.4,0-0.7,0h-0.7h-2.3l-0.1,1.6c0,0.2,0,0.5,0,0.9
					s0,0.8,0,1.4c0.3,0,0.6,0.1,1,0.1c0.3,0,0.7,0,1.1,0c0.5,0,1,0,1.4,0c0.4,0,0.8-0.1,1.2-0.1l-0.1,1.3H157.1z"/>
			</g>
			<g>
				<path class="st0" d="M172.7,15.7c0.1-0.9,0.1-1.9,0.1-2.8c0-0.9,0.1-1.8,0.1-2.6c0-0.8-0.1-1.3-0.3-1.6c-0.2-0.3-0.5-0.5-1-0.5
					c-0.7,0-1.2,0.4-1.5,1.2c-0.3,0.8-0.4,2.4-0.4,4.9c0,0.1,0,0.2,0,0.4c0,0.2,0,0.3,0,0.4c0,0.1,0,0.2,0,0.3c0,0.1,0,0.1,0,0.2
					h-1.2c0.1-0.9,0.1-1.8,0.2-2.6c0-0.9,0-1.7,0-2.5c0-0.9-0.1-1.5-0.3-1.8c-0.2-0.3-0.5-0.4-1-0.4c-0.8,0-1.3,0.4-1.6,1.2
					c-0.3,0.8-0.4,2.9-0.4,6.1h-1.2c0.1-1.3,0.2-2.7,0.2-3.9c0-1.3,0.1-2.5,0.1-3.8V7.4h1l0,1.1c0.3-0.5,0.6-0.8,0.9-1
					c0.3-0.2,0.8-0.3,1.2-0.3c0.6,0,1,0.1,1.3,0.4c0.3,0.3,0.5,0.6,0.7,1.1c0.3-0.5,0.6-0.9,1-1.1s0.8-0.4,1.3-0.4
					c0.7,0,1.2,0.2,1.6,0.7c0.3,0.5,0.5,1.2,0.5,2.1c0,0.2,0,0.9-0.1,2c0,1.1-0.1,2.1-0.1,3v0.7H172.7z"/>
			</g>
			<g>
				<path class="st0" d="M175,19.2c0.1-1.1,0.2-2.5,0.3-4.4c0.1-1.8,0.2-4.2,0.2-7c0.5-0.2,0.9-0.3,1.4-0.4c0.5-0.1,0.9-0.1,1.3-0.1
					c1.1,0,2,0.3,2.5,1c0.6,0.7,0.8,1.7,0.8,3.1c0,1.4-0.3,2.5-0.9,3.3c-0.6,0.8-1.3,1.3-2.2,1.3c-0.5,0-0.9-0.1-1.2-0.4
					c-0.3-0.2-0.7-0.6-0.9-1.1l-0.1,2.4c0,0,0,0.2,0,0.3c0,0.7,0,1.4-0.1,2H175z M176.6,8.6c0,0.4-0.1,0.8-0.1,1.3
					c0,0.5,0,1.1,0,1.7c0,1.1,0.2,1.9,0.5,2.4c0.3,0.5,0.8,0.8,1.5,0.8c0.7,0,1.2-0.3,1.6-0.9c0.4-0.6,0.5-1.5,0.5-2.6
					c0-1-0.2-1.8-0.6-2.3s-1-0.8-1.7-0.8c-0.3,0-0.6,0-0.8,0.1C177.2,8.4,176.9,8.5,176.6,8.6z"/>
			</g>
			<g>
				<path class="st0" d="M182.7,15.7c0.1-1.3,0.1-2.5,0.2-3.8c0-1.3,0.1-2.6,0.1-3.8V7.4h1.1l0,1.1c0.2-0.5,0.4-0.8,0.7-1
					c0.3-0.2,0.6-0.3,1-0.3c0.2,0,0.3,0,0.3,0c0.1,0,0.1,0,0.2,0.1l0.1,1.2c-0.1,0-0.3,0-0.4,0c-0.1,0-0.2,0-0.2,0
					c-1.2,0-1.9,2.3-1.9,7c0,0.1,0,0.2,0,0.2H182.7z"/>
			</g>
			<g>
				<path class="st0" d="M188.1,10.2h3.5c0-0.6-0.1-1.1-0.4-1.4c-0.3-0.3-0.7-0.5-1.2-0.5c-0.5,0-0.9,0.2-1.3,0.5
					C188.4,9.2,188.2,9.6,188.1,10.2z M188,11.3c0,0,0,0.1,0,0.2c0,0.2,0,0.4,0,0.5c0,1,0.2,1.7,0.5,2.2c0.3,0.5,0.9,0.7,1.5,0.7
					c0.3,0,0.5,0,0.8-0.1c0.3-0.1,0.6-0.2,1.1-0.5l-0.1,1.3c-0.4,0.1-0.8,0.2-1.1,0.3c-0.3,0.1-0.5,0.1-0.8,0.1
					c-1,0-1.7-0.4-2.3-1.1c-0.5-0.7-0.8-1.7-0.8-3c0-1.4,0.3-2.5,0.9-3.3c0.6-0.8,1.4-1.2,2.3-1.2c0.8,0,1.5,0.3,1.9,0.9
					c0.4,0.6,0.7,1.4,0.7,2.5c0,0.1,0,0.2,0,0.3c0,0.2,0,0.3,0,0.4H188z"/>
			</g>
			<g>
				<path class="st0" d="M198.4,15.7c0.1-1,0.1-1.9,0.2-2.8c0-0.9,0.1-1.7,0.1-2.3c0-0.8-0.1-1.4-0.3-1.7c-0.2-0.3-0.6-0.5-1.2-0.5
					c-0.9,0-1.6,0.4-2,1.3c-0.4,0.9-0.6,2.7-0.6,5.4v0.6h-1.1c0.1-1.3,0.2-2.6,0.2-4c0-1.4,0.1-2.8,0.1-4.3h1v1.3
					c0.3-0.5,0.7-0.9,1.1-1.2c0.4-0.2,0.9-0.4,1.5-0.4c0.8,0,1.4,0.2,1.8,0.6c0.4,0.4,0.6,1.1,0.6,2c0,0.2,0,0.8,0,1.9s0,2.1,0,3.1
					v0.9H198.4z"/>
			</g>
			<g>
				<path class="st0" d="M206.1,8.5c-0.2-0.1-0.4-0.2-0.7-0.2c-0.2,0-0.5-0.1-0.8-0.1c-0.9,0-1.6,0.3-2,1c-0.5,0.7-0.7,1.6-0.7,2.8
					c0,0.9,0.2,1.6,0.5,2.1c0.3,0.5,0.8,0.7,1.3,0.7c0.7,0,1.3-0.3,1.6-0.9c0.4-0.6,0.6-1.4,0.6-2.5L206.1,8.5z M205.8,15.7l0-1.2
					c-0.3,0.5-0.7,0.8-1,1s-0.8,0.3-1.2,0.3c-0.9,0-1.6-0.3-2.1-1c-0.5-0.6-0.7-1.6-0.7-2.7c0-1.5,0.3-2.7,1-3.6
					c0.7-0.9,1.6-1.3,2.8-1.3c0.2,0,0.5,0,0.7,0.1s0.5,0.1,0.7,0.2l0-0.7c0-0.3,0-0.6,0-0.9c0-0.1,0-0.1,0-0.1v-1h1.1
					c-0.1,1.5-0.2,3.2-0.3,5.1c-0.1,1.9-0.1,3.8-0.1,5.9H205.8z"/>
			</g>
			<g>
				<path class="st0" d="M209.5,10.2h3.5c0-0.6-0.1-1.1-0.4-1.4c-0.3-0.3-0.7-0.5-1.2-0.5c-0.5,0-0.9,0.2-1.3,0.5
					C209.9,9.2,209.6,9.6,209.5,10.2z M209.4,11.3c0,0,0,0.1,0,0.2c0,0.2,0,0.4,0,0.5c0,1,0.2,1.7,0.5,2.2c0.3,0.5,0.9,0.7,1.5,0.7
					c0.3,0,0.5,0,0.8-0.1c0.3-0.1,0.6-0.2,1.1-0.5l-0.1,1.3c-0.4,0.1-0.8,0.2-1.1,0.3c-0.3,0.1-0.5,0.1-0.8,0.1
					c-1,0-1.7-0.4-2.3-1.1c-0.5-0.7-0.8-1.7-0.8-3c0-1.4,0.3-2.5,0.9-3.3c0.6-0.8,1.4-1.2,2.3-1.2c0.8,0,1.5,0.3,1.9,0.9
					c0.4,0.6,0.7,1.4,0.7,2.5c0,0.1,0,0.2,0,0.3c0,0.2,0,0.3,0,0.4H209.4z"/>
			</g>
			<g>
				<polygon class="st0" points="215.7,14.1 217.2,14.1 215.7,17.3 214.7,17.3 				"/>
			</g>
			<g>
				<path class="st0" d="M222.2,15.7c0.1-1,0.2-2.4,0.3-4.2s0.1-4.1,0.2-6.7l5.5,0L228.1,6c-0.3,0-0.7-0.1-1-0.1c-0.3,0-0.7,0-1,0
					h-2.3c0,0.2,0,0.4-0.1,0.6c0,0.2,0,0.4,0,0.7l-0.1,2.2h2.2c0.1,0,0.3,0,0.6,0c0.3,0,0.7,0,1-0.1l-0.1,1.3c-0.3,0-0.5,0-0.8,0
					c-0.3,0-0.5,0-0.8,0h-2.3l-0.1,1.5c0,0.4,0,0.8,0,1.2c0,0.4,0,0.9,0,1.3v1H222.2z"/>
			</g>
			<g>
				<path class="st0" d="M230.3,7.4c-0.1,1-0.1,2-0.2,2.9c0,0.9-0.1,1.7-0.1,2.3c0,0.8,0.1,1.4,0.3,1.7c0.2,0.3,0.6,0.5,1.2,0.5
					c0.9,0,1.6-0.4,2-1.3c0.4-0.9,0.5-2.7,0.5-5.4V7.4h1.2c-0.1,1.3-0.2,2.7-0.2,4.1c-0.1,1.4-0.1,2.8-0.1,4.2h-1v-1.3
					c-0.3,0.5-0.7,0.9-1.1,1.1c-0.4,0.2-0.9,0.4-1.5,0.4c-0.8,0-1.4-0.2-1.8-0.6c-0.4-0.4-0.6-1.1-0.6-2c0-0.2,0-0.8,0-1.9
					c0-1.1,0-2.1,0-3.1V7.4H230.3z"/>
			</g>
			<g>
				<path class="st0" d="M241.2,15.7c0.1-1,0.1-1.9,0.2-2.8c0-0.9,0.1-1.7,0.1-2.3c0-0.8-0.1-1.4-0.3-1.7c-0.2-0.3-0.6-0.5-1.2-0.5
					c-0.9,0-1.6,0.4-2,1.3c-0.4,0.9-0.6,2.7-0.6,5.4v0.6h-1.1c0.1-1.3,0.2-2.6,0.2-4s0.1-2.8,0.1-4.3h1v1.3c0.3-0.5,0.7-0.9,1.1-1.2
					c0.4-0.2,0.9-0.4,1.5-0.4c0.8,0,1.4,0.2,1.8,0.6c0.4,0.4,0.6,1.1,0.6,2c0,0.2,0,0.8,0,1.9c0,1.1,0,2.1,0,3.1v0.9H241.2z"/>
			</g>
			<g>
				<path class="st0" d="M249,8.5c-0.2-0.1-0.4-0.2-0.7-0.2c-0.2,0-0.5-0.1-0.8-0.1c-0.9,0-1.6,0.3-2,1c-0.5,0.7-0.7,1.6-0.7,2.8
					c0,0.9,0.2,1.6,0.5,2.1c0.3,0.5,0.8,0.7,1.3,0.7c0.7,0,1.3-0.3,1.6-0.9c0.4-0.6,0.6-1.4,0.6-2.5L249,8.5z M248.7,15.7l0-1.2
					c-0.3,0.5-0.7,0.8-1,1s-0.8,0.3-1.2,0.3c-0.9,0-1.6-0.3-2.1-1c-0.5-0.6-0.7-1.6-0.7-2.7c0-1.5,0.3-2.7,1-3.6
					c0.7-0.9,1.6-1.3,2.8-1.3c0.2,0,0.5,0,0.7,0.1c0.2,0,0.5,0.1,0.7,0.2l0-0.7c0-0.3,0-0.6,0-0.9c0-0.1,0-0.1,0-0.1v-1h1.1
					c-0.1,1.5-0.2,3.2-0.3,5.1c-0.1,1.9-0.1,3.8-0.1,5.9H248.7z"/>
			</g>
			<g>
				<path class="st0" d="M254.6,15.7c-0.4,0.1-0.7,0.1-0.9,0.2c-0.2,0-0.4,0-0.5,0c-0.7,0-1.2-0.2-1.6-0.6c-0.4-0.4-0.6-0.9-0.6-1.6
					c0-0.6,0.1-1,0.4-1.4c0.2-0.4,0.6-0.7,1.2-0.9l1.5-0.7c0.6-0.3,0.9-0.5,1.1-0.7c0.2-0.2,0.3-0.5,0.3-0.8c0-0.4-0.1-0.6-0.3-0.8
					c-0.2-0.2-0.6-0.3-1.1-0.3c-0.3,0-0.7,0.1-1.1,0.2c-0.4,0.1-0.8,0.3-1.2,0.5l0.1-1.2c0.4-0.1,0.7-0.3,1.1-0.3
					c0.4-0.1,0.8-0.1,1.2-0.1c0.8,0,1.4,0.2,1.7,0.5c0.3,0.3,0.5,0.9,0.5,1.7c0,0.2,0,0.3,0,0.4c0,0.1,0,0.2,0,0.2l-0.1,4.2v1.4
					h-1.2c0.1-0.4,0.1-1,0.1-1.7c0-0.1,0-0.2,0-0.3l0.1-2.6c-0.1,0.1-0.2,0.2-0.3,0.3s-0.3,0.2-0.5,0.3l-1.4,0.7
					c-0.4,0.2-0.7,0.4-0.8,0.6c-0.2,0.2-0.2,0.5-0.2,0.8c0,0.4,0.1,0.7,0.3,0.9c0.2,0.2,0.5,0.3,0.9,0.3c0.2,0,0.4,0,0.6-0.1
					c0.2,0,0.5-0.1,0.8-0.2L254.6,15.7z"/>
			</g>
			<g>
				<path class="st0" d="M262.6,15.5c-0.3,0.1-0.6,0.2-0.9,0.3s-0.6,0.1-0.8,0.1c-1,0-1.8-0.4-2.3-1.1c-0.6-0.7-0.8-1.7-0.8-3.1
					c0-1.4,0.3-2.5,0.9-3.3s1.4-1.2,2.5-1.2c0.2,0,0.5,0,0.8,0.1c0.3,0.1,0.6,0.1,1,0.2v1.2c0,0,0,0,0,0c-0.8-0.3-1.4-0.5-1.8-0.5
					c-0.7,0-1.3,0.3-1.7,0.9c-0.4,0.6-0.6,1.5-0.6,2.6c0,1,0.2,1.7,0.5,2.2c0.4,0.5,0.9,0.8,1.6,0.8c0.2,0,0.5,0,0.8-0.1
					c0.3-0.1,0.7-0.2,1.2-0.4L262.6,15.5z"/>
			</g>
			<g>
				<path class="st0" d="M264.1,6.1l0-1.4h1.2l0,1.4H264.1z M263.7,15.7c0.1-1.3,0.2-2.7,0.2-4c0-1.3,0.1-2.6,0.1-3.8V7.4h1.3
					c-0.1,1.3-0.2,2.7-0.2,4c0,1.3-0.1,2.6-0.1,3.8v0.5H263.7z"/>
			</g>
			<g>
				<path class="st0" d="M269.8,8.3c-0.7,0-1.3,0.3-1.7,0.9c-0.4,0.6-0.6,1.5-0.6,2.6c0,1,0.2,1.7,0.5,2.2s0.9,0.7,1.6,0.7
					c0.7,0,1.3-0.3,1.7-0.9c0.4-0.6,0.6-1.4,0.6-2.6c0-1-0.2-1.8-0.5-2.3C271,8.6,270.5,8.3,269.8,8.3z M266.4,11.8
					c0-1.4,0.3-2.5,0.9-3.3c0.6-0.8,1.4-1.2,2.5-1.2c1,0,1.8,0.4,2.3,1.1c0.5,0.7,0.8,1.8,0.8,3.1c0,1.4-0.3,2.5-0.9,3.3
					c-0.6,0.8-1.4,1.2-2.4,1.2c-1.1,0-1.9-0.4-2.4-1.1C266.7,14.1,266.4,13.1,266.4,11.8z M269,6.3l1.3-2.8h1.2l-1.8,2.8H269z"/>
			</g>
			<g>
				<path class="st0" d="M279,15.7c0.1-1,0.1-1.9,0.2-2.8c0-0.9,0.1-1.7,0.1-2.3c0-0.8-0.1-1.4-0.3-1.7c-0.2-0.3-0.6-0.5-1.2-0.5
					c-0.9,0-1.6,0.4-2,1.3c-0.4,0.9-0.6,2.7-0.6,5.4v0.6H274c0.1-1.3,0.2-2.6,0.2-4c0-1.4,0.1-2.8,0.1-4.3h1v1.3
					c0.3-0.5,0.7-0.9,1.1-1.2c0.4-0.2,0.9-0.4,1.5-0.4c0.8,0,1.4,0.2,1.8,0.6c0.4,0.4,0.6,1.1,0.6,2c0,0.2,0,0.8,0,1.9
					c0,1.1,0,2.1,0,3.1v0.9H279z"/>
			</g>
			<g>
				<path class="st0" d="M285.2,15.7c0.1-1.4,0.2-3,0.3-4.8c0.1-1.9,0.1-3.9,0.2-6.1l3,0c0.5,0,0.8,0,1,0.1c0.2,0.1,0.4,0.1,0.6,0.3
					c0.3,0.2,0.5,0.5,0.7,0.9c0.2,0.4,0.2,0.8,0.2,1.3c0,1-0.3,1.8-0.9,2.4c-0.6,0.6-1.4,0.9-2.4,0.9c-0.1,0-0.3,0-0.4,0
					c-0.1,0-0.3,0-0.4,0l-0.3-1.1c0.1,0,0.2,0,0.3,0c0.1,0,0.2,0,0.4,0c0.8,0,1.4-0.2,1.8-0.5c0.4-0.3,0.6-0.9,0.6-1.5
					c0-0.6-0.1-1-0.4-1.3c-0.3-0.3-0.7-0.4-1.4-0.4c-0.2,0-0.4,0-0.7,0c-0.2,0-0.5,0-0.7,0.1c0,0.4-0.1,0.9-0.1,1.4
					c0,0.1,0,0.2,0,0.2l-0.1,4.5c0,0.6,0,1.2-0.1,1.8c0,0.6,0,1.2,0,1.8H285.2z"/>
			</g>
			<g>
				<path class="st0" d="M293.2,7.4c-0.1,1-0.1,2-0.2,2.9c0,0.9-0.1,1.7-0.1,2.3c0,0.8,0.1,1.4,0.3,1.7c0.2,0.3,0.6,0.5,1.2,0.5
					c0.9,0,1.6-0.4,2-1.3c0.4-0.9,0.5-2.7,0.5-5.4V7.4h1.2c-0.1,1.3-0.2,2.7-0.2,4.1s-0.1,2.8-0.1,4.2h-1v-1.3
					c-0.3,0.5-0.7,0.9-1.1,1.1c-0.4,0.2-0.9,0.4-1.5,0.4c-0.8,0-1.4-0.2-1.8-0.6c-0.4-0.4-0.6-1.1-0.6-2c0-0.2,0-0.8,0-1.9
					c0-1.1,0-2.1,0-3.1V7.4H293.2z M294.3,6.3l1.3-2.8h1.2l-1.8,2.8H294.3z"/>
			</g>
			<g>
				<path class="st0" d="M299.2,15.7c0.1-2.2,0.3-4.2,0.3-6.1c0.1-1.8,0.1-3.4,0.1-4.9h1.1c0,0.4-0.1,0.8-0.1,1.4c0,0.1,0,0.2,0,0.2
					l0,1.4c0.3-0.2,0.6-0.3,0.9-0.4c0.3-0.1,0.6-0.1,1-0.1c1,0,1.7,0.4,2.3,1.1c0.5,0.7,0.8,1.7,0.8,3c0,1.4-0.3,2.6-0.8,3.4
					s-1.3,1.3-2.3,1.3c-0.5,0-0.9-0.1-1.2-0.3c-0.3-0.2-0.6-0.6-0.9-1l-0.1,1.2H299.2z M300.6,8.9c0,0.4-0.1,0.8-0.1,1.3s0,1,0,1.5
					c0,1,0.2,1.8,0.5,2.3c0.3,0.5,0.8,0.8,1.4,0.8c0.7,0,1.2-0.3,1.6-0.9c0.4-0.6,0.6-1.5,0.6-2.6c0-1-0.2-1.7-0.5-2.2
					c-0.4-0.5-0.9-0.8-1.6-0.8c-0.3,0-0.6,0-0.9,0.1C301.3,8.5,301,8.7,300.6,8.9z"/>
			</g>
			<g>
				<path class="st0" d="M306.8,15.7c0.1-1,0.2-2.5,0.3-4.4c0.1-1.9,0.1-4.1,0.2-6.5l1.2,0c-0.1,1-0.2,2.5-0.3,4.4
					c-0.1,1.9-0.1,4.1-0.2,6.5H306.8z"/>
			</g>
			<g>
				<path class="st0" d="M310.1,6.1l0-1.4h1.2l0,1.4H310.1z M309.7,15.7c0.1-1.3,0.2-2.7,0.2-4c0-1.3,0.1-2.6,0.1-3.8V7.4h1.3
					c-0.1,1.3-0.2,2.7-0.2,4s-0.1,2.6-0.1,3.8v0.5H309.7z"/>
			</g>
			<g>
				<path class="st0" d="M317.3,15.5c-0.3,0.1-0.6,0.2-0.9,0.3c-0.3,0.1-0.6,0.1-0.8,0.1c-1,0-1.8-0.4-2.3-1.1
					c-0.6-0.7-0.8-1.7-0.8-3.1c0-1.4,0.3-2.5,0.9-3.3c0.6-0.8,1.4-1.2,2.5-1.2c0.2,0,0.5,0,0.8,0.1c0.3,0.1,0.6,0.1,1,0.2v1.2
					c0,0,0,0,0,0c-0.8-0.3-1.4-0.5-1.8-0.5c-0.7,0-1.3,0.3-1.7,0.9c-0.4,0.6-0.6,1.5-0.6,2.6c0,1,0.2,1.7,0.5,2.2
					c0.4,0.5,0.9,0.8,1.6,0.8c0.2,0,0.5,0,0.8-0.1c0.3-0.1,0.7-0.2,1.2-0.4L317.3,15.5z"/>
			</g>
			<g>
				<path class="st0" d="M321.6,15.7c-0.4,0.1-0.7,0.1-0.9,0.2c-0.2,0-0.4,0-0.5,0c-0.7,0-1.2-0.2-1.6-0.6c-0.4-0.4-0.6-0.9-0.6-1.6
					c0-0.6,0.1-1,0.4-1.4c0.2-0.4,0.6-0.7,1.2-0.9l1.5-0.7c0.6-0.3,0.9-0.5,1.1-0.7c0.2-0.2,0.3-0.5,0.3-0.8c0-0.4-0.1-0.6-0.3-0.8
					c-0.2-0.2-0.6-0.3-1.1-0.3c-0.3,0-0.7,0.1-1.1,0.2c-0.4,0.1-0.8,0.3-1.2,0.5l0.1-1.2c0.4-0.1,0.7-0.3,1.1-0.3
					c0.4-0.1,0.8-0.1,1.2-0.1c0.8,0,1.4,0.2,1.7,0.5c0.3,0.3,0.5,0.9,0.5,1.7c0,0.2,0,0.3,0,0.4c0,0.1,0,0.2,0,0.2l-0.1,4.2v1.4
					h-1.2c0.1-0.4,0.1-1,0.1-1.7c0-0.1,0-0.2,0-0.3l0.1-2.6c-0.1,0.1-0.2,0.2-0.3,0.3s-0.3,0.2-0.5,0.3l-1.4,0.7
					c-0.4,0.2-0.7,0.4-0.8,0.6c-0.2,0.2-0.2,0.5-0.2,0.8c0,0.4,0.1,0.7,0.3,0.9c0.2,0.2,0.5,0.3,0.9,0.3c0.2,0,0.4,0,0.6-0.1
					c0.2,0,0.5-0.1,0.8-0.2L321.6,15.7z"/>
			</g>
			<g>
				<path class="st0" d="M332.1,5.7l-1.5,4h2.6L332.1,5.7z M336.1,15.7h-1.3c0-0.3-0.1-0.5-0.1-0.7c0-0.2-0.1-0.4-0.1-0.6l-1-3.6
					h-3.4L329,14c-0.1,0.2-0.1,0.4-0.2,0.7c-0.1,0.3-0.2,0.6-0.3,0.9h-1.2l3.6-9.6c0.1-0.2,0.1-0.4,0.2-0.6c0.1-0.2,0.1-0.5,0.2-0.7
					l1.7,0c0,0.2,0.1,0.4,0.1,0.6c0,0.2,0.1,0.4,0.2,0.6L336.1,15.7z"/>
			</g>
			<g>
				<path class="st0" d="M341.4,15.7c0.1-1,0.1-1.9,0.2-2.8c0-0.9,0.1-1.7,0.1-2.3c0-0.8-0.1-1.4-0.3-1.7c-0.2-0.3-0.6-0.5-1.2-0.5
					c-0.9,0-1.6,0.4-2,1.3c-0.4,0.9-0.6,2.7-0.6,5.4v0.6h-1.1c0.1-1.3,0.2-2.6,0.2-4s0.1-2.8,0.1-4.3h1v1.3c0.3-0.5,0.7-0.9,1.1-1.2
					c0.4-0.2,0.9-0.4,1.5-0.4c0.8,0,1.4,0.2,1.8,0.6c0.4,0.4,0.6,1.1,0.6,2c0,0.2,0,0.8,0,1.9c0,1.1,0,2.1,0,3.1v0.9H341.4z"/>
			</g>
			<g>
				<path class="st0" d="M349.1,8.5c-0.2-0.1-0.4-0.2-0.7-0.2c-0.2,0-0.5-0.1-0.8-0.1c-0.9,0-1.6,0.3-2,1c-0.5,0.7-0.7,1.6-0.7,2.8
					c0,0.9,0.2,1.6,0.5,2.1c0.3,0.5,0.8,0.7,1.3,0.7c0.7,0,1.3-0.3,1.6-0.9c0.4-0.6,0.6-1.4,0.6-2.5L349.1,8.5z M348.8,15.7l0-1.2
					c-0.3,0.5-0.7,0.8-1,1c-0.4,0.2-0.8,0.3-1.2,0.3c-0.9,0-1.6-0.3-2.1-1c-0.5-0.6-0.7-1.6-0.7-2.7c0-1.5,0.3-2.7,1-3.6
					c0.7-0.9,1.6-1.3,2.8-1.3c0.2,0,0.5,0,0.7,0.1c0.2,0,0.5,0.1,0.7,0.2l0-0.7c0-0.3,0-0.6,0-0.9c0-0.1,0-0.1,0-0.1v-1h1.1
					c-0.1,1.5-0.2,3.2-0.3,5.1c-0.1,1.9-0.1,3.8-0.1,5.9H348.8z"/>
			</g>
			<g>
				<path class="st0" d="M354.7,15.7c-0.4,0.1-0.7,0.1-0.9,0.2c-0.2,0-0.4,0-0.5,0c-0.7,0-1.2-0.2-1.6-0.6c-0.4-0.4-0.6-0.9-0.6-1.6
					c0-0.6,0.1-1,0.4-1.4c0.2-0.4,0.6-0.7,1.2-0.9l1.5-0.7c0.6-0.3,0.9-0.5,1.1-0.7c0.2-0.2,0.3-0.5,0.3-0.8c0-0.4-0.1-0.6-0.3-0.8
					c-0.2-0.2-0.6-0.3-1.1-0.3c-0.3,0-0.7,0.1-1.1,0.2c-0.4,0.1-0.8,0.3-1.2,0.5l0.1-1.2c0.4-0.1,0.7-0.3,1.1-0.3
					c0.4-0.1,0.8-0.1,1.2-0.1c0.8,0,1.4,0.2,1.7,0.5c0.3,0.3,0.5,0.9,0.5,1.7c0,0.2,0,0.3,0,0.4c0,0.1,0,0.2,0,0.2l-0.1,4.2v1.4
					h-1.2c0.1-0.4,0.1-1,0.1-1.7c0-0.1,0-0.2,0-0.3l0.1-2.6c-0.1,0.1-0.2,0.2-0.3,0.3s-0.3,0.2-0.5,0.3l-1.4,0.7
					c-0.4,0.2-0.7,0.4-0.8,0.6c-0.2,0.2-0.2,0.5-0.2,0.8c0,0.4,0.1,0.7,0.3,0.9c0.2,0.2,0.5,0.3,0.9,0.3c0.2,0,0.4,0,0.6-0.1
					c0.2,0,0.5-0.1,0.8-0.2L354.7,15.7z"/>
			</g>
			<g>
				<path class="st0" d="M358,15.7c0.1-1,0.2-2.5,0.3-4.4c0.1-1.9,0.1-4.1,0.2-6.5l1.2,0c-0.1,1-0.2,2.5-0.3,4.4
					c-0.1,1.9-0.1,4.1-0.2,6.5H358z"/>
			</g>
			<g>
				<path class="st0" d="M362.2,7.4c-0.1,1-0.1,2-0.2,2.9c0,0.9-0.1,1.7-0.1,2.3c0,0.8,0.1,1.4,0.3,1.7c0.2,0.3,0.6,0.5,1.2,0.5
					c0.9,0,1.6-0.4,2-1.3c0.4-0.9,0.5-2.7,0.5-5.4V7.4h1.2c-0.1,1.3-0.2,2.7-0.2,4.1c-0.1,1.4-0.1,2.8-0.1,4.2h-1v-1.3
					c-0.3,0.5-0.7,0.9-1.1,1.1c-0.4,0.2-0.9,0.4-1.5,0.4c-0.8,0-1.4-0.2-1.8-0.6c-0.4-0.4-0.6-1.1-0.6-2c0-0.2,0-0.8,0-1.9
					s0-2.1,0-3.1V7.4H362.2z"/>
			</g>
			<g>
				<path class="st0" d="M373,15.7h-5.3l0-1.3l4.2-5.9h-2.7c-0.2,0-0.4,0-0.6,0c-0.2,0-0.4,0-0.5,0l0-1.1h5v1.2l-4.3,5.9h2.5
					c0.1,0,0.3,0,0.6,0c0.3,0,0.6,0,1-0.1L373,15.7z"/>
			</g>
			<g>
				<path class="st0" d="M377.2,15.7c-0.4,0.1-0.7,0.1-0.9,0.2c-0.2,0-0.4,0-0.5,0c-0.7,0-1.2-0.2-1.6-0.6c-0.4-0.4-0.6-0.9-0.6-1.6
					c0-0.6,0.1-1,0.4-1.4c0.2-0.4,0.6-0.7,1.2-0.9l1.5-0.7c0.6-0.3,0.9-0.5,1.1-0.7c0.2-0.2,0.3-0.5,0.3-0.8c0-0.4-0.1-0.6-0.3-0.8
					c-0.2-0.2-0.6-0.3-1.1-0.3c-0.3,0-0.7,0.1-1.1,0.2c-0.4,0.1-0.8,0.3-1.2,0.5l0.1-1.2c0.4-0.1,0.7-0.3,1.1-0.3
					c0.4-0.1,0.8-0.1,1.2-0.1c0.8,0,1.4,0.2,1.7,0.5c0.3,0.3,0.5,0.9,0.5,1.7c0,0.2,0,0.3,0,0.4c0,0.1,0,0.2,0,0.2l-0.1,4.2v1.4
					h-1.2c0.1-0.4,0.1-1,0.1-1.7c0-0.1,0-0.2,0-0.3L378,11c-0.1,0.1-0.2,0.2-0.3,0.3s-0.3,0.2-0.5,0.3l-1.4,0.7
					c-0.4,0.2-0.7,0.4-0.8,0.6c-0.2,0.2-0.2,0.5-0.2,0.8c0,0.4,0.1,0.7,0.3,0.9c0.2,0.2,0.5,0.3,0.9,0.3c0.2,0,0.4,0,0.6-0.1
					c0.2,0,0.5-0.1,0.8-0.2L377.2,15.7z"/>
			</g>
		</g>
	</g>
	<g>
		<g>
			<path class="st0" d="M0.9,55.5c0,1,0.8,1.8,1.8,1.8c1,0,1.8-0.8,1.8-1.8l0-5.6H2.6v1h0.8v4.6c0,0.4-0.3,0.8-0.8,0.8
				s-0.8-0.3-0.8-0.8H0.9z"/>
		</g>
		<g>
			<path class="st0" d="M8.5,49.9v5.6c0,0.4-0.3,0.8-0.8,0.8c-0.4,0-0.8-0.3-0.8-0.8v-5.6H5.2v1H6v4.6c0,1,0.8,1.8,1.8,1.8
				s1.8-0.8,1.8-1.8v-5.6L8.5,49.9z"/>
		</g>
		<g>
			<polygon class="st0" points="13.5,53.4 12,51.5 12,57.3 11,57.3 11,50.9 10.2,50.9 10.2,49.9 12,49.9 13.5,51.8 13.5,49.9 
				14.5,49.9 14.5,57.3 13.5,57.3 			"/>
		</g>
		<g>
			<polygon class="st0" points="17.3,57.3 17.3,50.9 18.2,50.9 18.2,49.9 15.3,49.9 15.3,50.9 16.3,50.9 16.3,57.3 			"/>
		</g>
		<g>
			<path class="st0" d="M19,50.9v-1h2.3c0.6,0,1,0.4,1.1,1l1,6.4l-1,0l-0.5-3.1h-1.4L20,57.3h-1l1-6.4H19z M21,50.9l-0.4,2.3h1.1
				L21.4,51c0-0.1-0.1-0.1-0.1-0.1H21z"/>
		</g>
		<g>
			<polygon class="st0" points="32,49.9 32,50.9 32.8,50.9 32.8,57.3 35.9,57.3 35.7,56.3 33.8,56.3 33.8,54.2 34.8,54.2 34.8,53.2 
				33.8,53.2 33.8,50.9 35.7,50.9 35.7,49.9 			"/>
		</g>
		<g>
			<path class="st0" d="M29.2,56.3v-5.4H30c0.4,0,0.8,0.3,0.8,0.8v3.9c0,0.4-0.3,0.8-0.8,0.8L29.2,56.3z M30,57.3
				c1,0,1.7-0.8,1.7-1.8l0-3.9c0-1-0.8-1.8-1.8-1.8h-2.5v1h0.8v6.4L30,57.3z"/>
		</g>
		<g>
			<path class="st0" d="M74.3,50.9v-1h2.3c0.6,0,1,0.4,1.1,1l1,6.4l-1,0l-0.5-3.1h-1.4l-0.5,3.1h-1l1-6.4H74.3z M76.3,50.9l-0.4,2.3
				H77L76.7,51c0-0.1-0.1-0.1-0.1-0.1H76.3z"/>
		</g>
		<g>
			<polygon class="st0" points="48,53.4 46.4,51.5 46.4,57.3 45.4,57.3 45.4,50.9 44.7,50.9 44.7,49.9 46.4,49.9 48,51.8 48,49.9 
				48.9,49.9 48.9,57.3 48,57.3 			"/>
		</g>
		<g>
			<path class="st0" d="M40,50.9v-1h2.3c0.6,0,1,0.4,1.1,1l1,6.4l-1,0l-0.5-3.1h-1.4L41,57.3h-1l1-6.4H40z M42,50.9l-0.4,2.3h1.1
				L42.4,51c0-0.1-0.1-0.1-0.1-0.1H42z"/>
		</g>
		<g>
			<path class="st0" d="M52.3,57.3c1,0,1.7-0.8,1.7-1.8l0-3.9c0-1-0.8-1.8-1.8-1.8h-2.5v1h0.8v6.4L52.3,57.3z M51.5,56.3v-5.4h0.8
				c0.4,0,0.8,0.3,0.8,0.8v3.9c0,0.4-0.3,0.8-0.8,0.8L51.5,56.3z"/>
		</g>
		<g>
			<path class="st0" d="M55.1,50.9v-1h2.3c0.6,0,1,0.4,1.1,1l1,6.4l-1,0L58,54.2h-1.4l-0.5,3.1h-1l1-6.4L55.1,50.9z M57.1,50.9
				l-0.4,2.3h1.1L57.5,51c0-0.1-0.1-0.1-0.1-0.1H57.1z"/>
		</g>
		<g>
			<path class="st0" d="M66.3,49.9v5.6c0,0.4-0.3,0.8-0.8,0.8c-0.4,0-0.8-0.3-0.8-0.8v-5.6H63v1h0.8v4.6c0,1,0.8,1.8,1.8,1.8
				c1,0,1.8-0.8,1.8-1.8v-5.6L66.3,49.9z"/>
		</g>
		<g>
			<path class="st0" d="M70.7,50.9h-0.8c-0.4,0-0.8,0.3-0.8,0.8v3.9c0,0.4,0.3,0.8,0.8,0.8l0.8,0l0.2,1l-1,0c-1,0-1.7-0.8-1.7-1.8
				l0-3.9c0-1,0.8-1.8,1.8-1.8h0.8L70.7,50.9z"/>
		</g>
		<g>
			<polygon class="st0" points="73.2,57.3 73.2,49.9 71.5,49.9 71.5,50.9 72.2,50.9 72.2,57.3 			"/>
		</g>
		<g>
			<polygon class="st0" points="59.7,49.9 59.7,50.9 60.5,50.9 60.5,57.3 63.6,57.3 63.4,56.3 61.5,56.3 61.5,50.9 61.5,50.9 
				61.5,49.9 			"/>
		</g>
		<g>
			<path class="st0" d="M39.8,8.6c12,0,24,4.6,33.2,13.8c2.1,2.1,4,4.4,5.7,6.8c-2-5.2-5.2-10.1-9.4-14.3
				C61.1,6.8,50.5,2.7,39.8,2.7C29.1,2.7,18.4,6.8,10.3,15c-4.2,4.2-7.3,9.1-9.4,14.3c1.6-2.4,3.5-4.7,5.7-6.8
				C15.7,13.3,27.8,8.7,39.8,8.6z"/>
		</g>
		<g>
			<polygon class="st1" points="45.2,44 34.4,44 39.8,26.3 			"/>
		</g>
		<g>
			<path class="st0" d="M39.8,20.5c9.3,0,18.7,3.6,25.8,10.7c1.3,1.3,2.6,2.8,3.7,4.3c-1.5-4.3-3.9-8.3-7.4-11.7
				c-6.1-6.1-14.1-9.2-22.1-9.2c-8,0-16,3.1-22.1,9.2c-3.4,3.4-5.8,7.4-7.4,11.7c1.1-1.5,2.3-2.9,3.7-4.3
				C21.1,24.1,30.5,20.5,39.8,20.5z"/>
		</g>
	</g>
</g>
</svg>
